$MeshFormat
2.2 0 8
$EndMeshFormat
$Nodes
12
1 -0.018000 0.016180 0.000000
2 0.016560 0.014886 0.000000
3 -0.019440 -0.017474 0.000000
4 0.017280 -0.015533 0.000000
5 0.000000 -0.010500 0.013594
6 0.000000 0.009000 0.011650
7 0.000000 -0.009800 -0.012685
8 0.000000 0.011000 -0.014238
9 0.030291 0.000000 -0.008320
10 0.027377 0.000000 0.007520
11 -0.028252 0.000000 -0.007760
12 -0.030873 0.000000 0.008480
$EndNodes
$Elements
20
1 2 2 1 1 1 12 6
2 2 2 1 1 1 6 2
3 2 2 1 1 1 2 8
4 2 2 1 1 1 8 11
5 2 2 1 1 1 11 12
6 2 2 1 1 2 6 10
7 2 2 1 1 6 12 5
8 2 2 1 1 12 11 3
9 2 2 1 1 11 8 7
10 2 2 1 1 8 2 9
11 2 2 1 1 4 10 5
12 2 2 1 1 4 5 3
13 2 2 1 1 4 3 7
14 2 2 1 1 4 7 9
15 2 2 1 1 4 9 10
16 2 2 1 1 5 10 6
17 2 2 1 1 3 5 12
18 2 2 1 1 7 3 11
19 2 2 1 1 9 7 8
20 2 2 1 1 10 9 2
$EndElements
